<?xml version="1.0" standalone="no"?>
<!DOCTYPE svg PUBLIC "-//W3C//DTD SVG 1.1//EN" "http://www.w3.org/Graphics/SVG/1.1/DTD/svg11.dtd" >
<svg xmlns="http://www.w3.org/2000/svg">
<metadata>
Created by FontForge 20120731 at Wed Jul 19 10:11:06 2017
 By admin
</metadata>
<defs>
<font id="iconfont" horiz-adv-x="1024" >
  <font-face 
    font-family="iconfont"
    font-weight="500"
    font-stretch="normal"
    units-per-em="1024"
    panose-1="2 0 6 3 0 0 0 0 0 0"
    ascent="896"
    descent="-128"
    x-height="792"
    bbox="0 -212 1313 896"
    underline-thickness="0"
    underline-position="0"
    unicode-range="U+0078-E88C"
  />
<missing-glyph 
 />
    <glyph glyph-name=".notdef" 
 />
    <glyph glyph-name=".notdef" 
 />
    <glyph glyph-name=".null" horiz-adv-x="0" 
 />
    <glyph glyph-name="nonmarkingreturn" horiz-adv-x="341" 
 />
    <glyph glyph-name="x" unicode="x" horiz-adv-x="1001" 
d="M281 543q-27 -1 -53 -1h-83q-18 0 -36.5 -6t-32.5 -18.5t-23 -32t-9 -45.5v-76h912v41q0 16 -0.5 30t-0.5 18q0 13 -5 29t-17 29.5t-31.5 22.5t-49.5 9h-133v-97h-438v97zM955 310v-52q0 -23 0.5 -52t0.5 -58t-10.5 -47.5t-26 -30t-33 -16t-31.5 -4.5q-14 -1 -29.5 -0.5
t-29.5 0.5h-32l-45 128h-439l-44 -128h-29h-34q-20 0 -45 1q-25 0 -41 9.5t-25.5 23t-13.5 29.5t-4 30v167h911zM163 247q-12 0 -21 -8.5t-9 -21.5t9 -21.5t21 -8.5q13 0 22 8.5t9 21.5t-9 21.5t-22 8.5zM316 123q-8 -26 -14 -48q-5 -19 -10.5 -37t-7.5 -25t-3 -15t1 -14.5
t9.5 -10.5t21.5 -4h37h67h81h80h64h36q23 0 34 12t2 38q-5 13 -9.5 30.5t-9.5 34.5q-5 19 -11 39h-368zM336 498v228q0 11 2.5 23t10 21.5t20.5 15.5t34 6h188q31 0 51.5 -14.5t20.5 -52.5v-227h-327z" />
    <glyph glyph-name="zuliao" unicode="&#xe601;" 
d="M202 541q8 3 11 15.5t-0.5 26t-12 21.5t-16.5 4.5t-11 -15.5t1 -26t12 -21.5t16 -4.5zM257 566.5q9 3.5 12 17t-1 29t-13.5 24t-18.5 5t-12 -17t1 -29t13.5 -24t18.5 -5zM390.5 602q11.5 5 16 23t-1.5 38.5t-18 31.5t-24 6.5t-16.5 -22.5t1.5 -39t18.5 -32t24 -6z
M155 509q7 3 9.5 14t-1 23.5t-11 19.5t-14.5 4t-9.5 -14t1 -23.5t11 -19.5t14.5 -4zM308 592q9 4 12 17.5t-1.5 29t-13.5 23.5t-18 4.5t-12 -17t1 -29t13.5 -24t18.5 -4.5zM313 555q-35 -23 -69 -23q-5 -1 -13.5 -2.5t-29 -11t-35.5 -22.5t-26 -37.5t-7 -55.5
q23 -83 78 -210q3 -6 6 -16.5t7 -33.5t1 -36q0 -5 0.5 -13t4.5 -29.5t11 -38.5t22.5 -33.5t35.5 -20.5q4 -2 9 -4t19 -3.5t26.5 1t25.5 15t20 34.5q2 1 6 4t11.5 14.5t9.5 24t-4 34t-23 45.5q-3 7 -7 20.5t-9 53t-2 75.5q2 31 22 90t24 81q3 24 4.5 47t2 36.5t0.5 14.5
q-5 9 -12.5 15.5t-22 12t-37 -1.5t-49.5 -26zM434 555l3 -6l-3 7v-1zM766.5 483q8.5 -4 17.5 4.5t13.5 24t1 29t-12 17.5t-17.5 -4.5t-13.5 -24t-1 -29t12 -17.5zM589 465q1 3 4 7q-1 2 -2 -2q-1 -2 -2 -5zM716.5 508.5q8.5 -3.5 17.5 4.5t13.5 23.5t1.5 29t-12 17.5
t-18 -4.5t-13.5 -24t-1 -29t12 -17zM819.5 457q7.5 -3 16 4.5t12.5 21.5t1 26t-11 15.5t-16 -4t-12 -21.5t-1 -26.5t10.5 -15.5zM779 449q-15 0 -32 5.5t-26 10.5l-10 6q-26 20 -48.5 26.5t-36.5 1t-21.5 -12t-11.5 -14.5v-15t1.5 -36.5t5.5 -47.5q3 -22 23 -81t22 -90
q3 -36 -1.5 -73t-10.5 -57l-6 -19q-51 -71 -9 -107l9 -6q7 -22 19.5 -35.5t25.5 -17t25 -3.5t19.5 2l7.5 2q21 5 36 21t22 33.5t11 38.5t4.5 29t0.5 13q-2 10 -1.5 20.5t2.5 22.5t5 21.5t5 16t2 5.5q24 57 43 109.5t26.5 76t7.5 24.5q3 31 -6.5 56t-26.5 38t-34 21.5
t-30 11.5zM883 486q-7 3 -14.5 -4t-11 -19.5t-1 -23.5t9.5 -13.5t14.5 4t11 19t1 23.5t-9.5 14zM635.5 518q11.5 -5 23.5 6.5t17.5 32t1.5 38.5t-15.5 23t-24 -6.5t-18 -32t-1 -38.5t16 -23z" />
    <glyph glyph-name="jiudian" unicode="&#xe602;" 
d="M260 592h150q32 0 54.5 22.5t22.5 54.5v2q0 32 -22.5 54t-54.5 22h-150q-32 0 -54 -22t-22 -54v-2q0 -32 22 -54.5t54 -22.5zM827 508q-23 28 -56 28h-512q-34 -1 -58 -27q-3 -5 -8 -12t-19.5 -29t-28 -42t-29.5 -46l-28 -45.5t-20 -36.5t-8 -23v-197q0 -24 16.5 -40
t39.5 -16h772q25 0 50.5 17t25.5 39v197q0 14 -34.5 72t-68.5 109zM608 594h154q31 0 53 22t22 53.5t-22 54t-53 22.5h-154q-32 0 -54 -22.5t-22 -54t22 -53.5t54 -22z" />
    <glyph glyph-name="dianhua" unicode="&#xe626;" 
d="M802 667l72 -71q11 -11 16.5 -25t6.5 -24.5t-3.5 -29.5t-7.5 -28t-12 -33q-11 -19 -31 -49.5t-79 -108t-115 -132.5q-60 -59 -133 -113.5t-116 -81t-43 -25.5q-94 -48 -142 0l-72 70q-15 16 -16 37t16 34l143 105q42 28 71 0v0v0l42 -42q89 66 154 130q58 57 115 133
l-44 43q-28 28 0 70l107 141q15 14 36 14t35 -14v0z" />
    <glyph glyph-name="iconjia" unicode="&#xe61f;" 
d="M903 229h-332v-332q0 -25 -17.5 -42t-41.5 -17t-41.5 17t-17.5 42v332h-332q-24 0 -41.5 17t-17.5 41.5t17.5 41.5t41.5 17h332v333q0 24 17.5 41t41.5 17t41.5 -17t17.5 -41v-333h332q24 0 41.5 -17t17.5 -41.5t-17.5 -41.5t-41.5 -17z" />
    <glyph glyph-name="iconjian" unicode="&#xe620;" 
d="M903 229h-782q-24 0 -41.5 17.5t-17.5 41.5t17.5 41.5t41.5 17.5h782q24 0 41.5 -17.5t17.5 -41.5t-17.5 -41.5t-41.5 -17.5z" />
    <glyph glyph-name="jp" unicode="&#xe636;" 
d="M634 151l-2 5l-79 96v0q-88 -73 -166 -133v0l8 -189q1 -20 -6.5 -22.5t-19.5 13.5l-86 120q-66 -46 -71 -41t41 71l-111 78q-17 12 -14.5 19.5t22.5 7.5l178 -4q61 78 136 169v0l-96 79l-5 2q-15 -13 -30.5 -16.5t-25.5 4.5q-16 13 -4 44v0l-270 140q-9 4 -10.5 12
t5.5 15t19 10.5t21 0.5l282 -72v0l48 62q6 8 16.5 9.5t18.5 -4.5l61 -40q8 -6 9 -14.5t-6 -15.5l-27 -28l80 -21l55 1v0q121 140 205 223q31 32 99.5 58t93.5 1t-1 -93.5t-58 -99.5q-83 -84 -223 -205v0l-1 -55l21 -80v0l28 27q7 7 15.5 6t14.5 -9l40 -61q6 -8 4.5 -18.5
t-9.5 -16.5l-62 -48l72 -282q3 -9 -0.5 -21t-10.5 -19t-15 -5.5t-12 10.5l-140 270q-31 -12 -44 4q-8 10 -4.5 25.5t16.5 30.5z" />
    <glyph glyph-name="xiaochikuaican" unicode="&#xe610;" 
d="M511 780q97 0 185.5 -38t152.5 -102t102 -152.5t38 -186t-38 -186t-102 -152.5t-152.5 -102t-186 -38t-186 38t-152.5 102t-102 152.5t-38 186t38 186t102 152.5t152.5 102t186.5 38v0zM194 364v-84q15 10 36 18t45 7q21 -2 35 -7t26 -10.5t24 -9.5t29 -4q16 0 32.5 5.5
t33.5 13t35 13.5t35.5 6t27 -8t16.5 -16.5t15.5 -16.5t25.5 -8t31.5 9t29.5 19t31.5 18t37.5 8q20 -2 27 -11.5t10.5 -20.5t8.5 -19.5t22 -8.5h19v107h-633v0zM194 100v-106h633v106h-633v0zM734 257q-15 -2 -28.5 -9.5t-28 -16.5t-32.5 -16t-40.5 -7t-32 6.5t-15.5 14
t-14 14.5t-28 7q-12 0 -26 -5.5t-30.5 -12.5t-35.5 -12.5t-42.5 -5.5t-37 5.5t-23.5 13t-21 13.5t-29 6q-26 0 -45.5 -11.5t-30.5 -21.5v-66h633v57h-17q-15 0 -23.5 7.5t-16 17t-15 16.5t-21.5 6v0zM827 417v53q-6 36 -34 65.5t-70 51t-96.5 33t-115.5 11.5
q-60 0 -114.5 -11.5t-97.5 -33t-71 -51t-34 -65.5v-53h633v0zM374 523q11 0 18.5 8t7.5 18.5t-7.5 18.5t-18.5 8t-18.5 -8t-7.5 -18.5t7.5 -18.5t18.5 -8v0zM532 576q12 0 19 7.5t7 18.5t-7 18.5t-19 7.5q-11 0 -18 -7.5t-7 -18.5t7 -18.5t18 -7.5v0zM638 523q11 0 19 8
t8 18.5t-8 18.5t-19 8t-18.5 -8t-7.5 -18.5t7.5 -18.5t18.5 -8z" />
    <glyph glyph-name="shaokao" unicode="&#xe611;" 
d="M511 780q97 0 185.5 -38t152.5 -102t102 -152.5t38 -186t-38 -186t-102 -152.5t-152.5 -102t-186 -38t-186 38t-152.5 102t-102 152.5t-38 186t38 186t102 152.5t152.5 102t186.5 38v0zM846 468q-26 -41 -118.5 -67t-215.5 -26t-215.5 26t-118.5 67l-6.5 -3t-16 -8
t-18.5 -11t-15 -14.5t-6 -16.5q0 -12 14 -21.5t28 -14.5t40 -13q20 -50 55 -93.5t79 -68.5l-88 -205q-3 -9 0.5 -18t12.5 -13q5 -2 10 -2q15 0 22 14l87 204q64 -26 136 -26q73 0 139 27l88 -205q6 -14 22 -14q5 0 9 2q10 4 13.5 13t-0.5 18l-88 207q42 24 75.5 66.5
t53.5 91.5q28 7 42 11.5t26.5 14t12.5 21.5q0 6 -3 12.5t-8 12t-11.5 10.5t-13 9t-12 7t-8.5 4.5l-3 1.5v0zM167 447q-3 -2 -7 -4.5t-11.5 -10.5t-8.5 -14.5t9.5 -14t35.5 -12.5q-4 0 -11 27q-4 13 -7 29v0zM842 390q24 4 35 11.5t9 14.5t-7.5 14t-12.5 11l-6 4
q-3 -18 -7.5 -32t-7.5 -19l-3 -4v0zM512 391q71 0 133 9t104 24t66 33.5t24 37.5q0 40 -93.5 72t-234 32t-233.5 -32t-93 -72t93 -72t234 -32v0zM498 427l135 138q-32 4 -65 5l-131 -140q29 -2 61 -3v0zM690 556l-120 -128q32 1 64 4l106 109h7q-9 0 -28.5 7t-28.5 8v0z
M372 436l131 135q-35 0 -66 -2l-128 -120q28 -8 63 -13v0zM705 444q94 21 94 55q0 15 -18 27l-76 -82v0zM358 560q-125 -20 -125 -61q0 -16 22 -29z" />
    <glyph glyph-name="jiuba" unicode="&#xe612;" 
d="M490 280l186 195h-372zM706 588q-30 0 -53.5 -19.5t-29.5 -49.5h105q14 0 19.5 -13.5t-4.5 -24.5l-64 -67q13 -5 27 -5q35 0 60 26.5t25 63.5t-25 63t-60 26zM512 812q-139 0 -257 -68.5t-186.5 -186.5t-68.5 -257t68.5 -257t186.5 -186.5t257 -68.5t257 68.5
t186.5 186.5t68.5 257t-68.5 257t-186.5 186.5t-257 68.5zM706 365q-32 0 -60 15l-135 -141v-271h54q9 0 15.5 -6.5t6.5 -15.5t-6.5 -15.5t-15.5 -6.5h-150q-9 0 -15.5 6.5t-6.5 15.5t6.5 15.5t15.5 6.5h53v271l-231 242q-10 11 -4.5 24.5t19.5 13.5h327q7 49 43 81.5
t84 32.5q53 0 90.5 -39.5t37.5 -95t-37.5 -94.5t-90.5 -39z" />
    <glyph glyph-name="liren" unicode="&#xe606;" 
d="M857 607q-30 29 -69 34.5t-74.5 -8.5t-66.5 -41q-101 93 -211.5 99.5t-241.5 -73.5q-33 -22 -52 -40l-9 -9l11 -6q5 -3 12.5 -8.5t21 -24.5t15.5 -41q1 -19 -12 -41t-32 -40t-38.5 -33t-33 -23.5l-13.5 -8.5l71 -32q-7 -31 -10 -52.5t1 -59.5t22 -70q20 -25 49 -27
q18 -1 47 -1h18h18q39 0 67 -3.5t42 -8t24 -13t12 -13t5 -13.5q30 -82 37 -131l1 -8h200h43q-4 11 -20 38t-29 53t-24.5 56.5t-9 59t20.5 49.5q68 89 80 199q6 57 -8 107q-11 41 -39 80q80 58 124 20q20 -17 21.5 -50.5t-11 -71.5t-33 -84t-41 -86t-37.5 -78.5t-21 -59.5
q-13 -56 -0.5 -90.5t37.5 -53t61 -19.5t70.5 9.5t64.5 34.5t44 56q-7 -10 -31.5 -15.5t-53.5 -2.5t-54.5 16.5t-34.5 42t6 74.5q13 36 43.5 108t38.5 101q24 84 18.5 129t-36.5 74v0zM857 607z" />
    <glyph glyph-name="ribenliaoli" unicode="&#xe63a;" 
d="M225 220q54 9 105 -24q18 -11 33 3t10 34q-4 18 -39 26t-57 0q-11 -4 -11 1q2 10 30 17q30 8 68 2q6 -2 8.5 0.5t3 10.5t50.5 52t70 52q31 13 8 19q-8 2 -21 4q-37 4 -90 -5t-87 -35q-65 -51 -71 -102q-1 -7 -2.5 -12t-2 -8t-2.5 -3.5t-2.5 -1t-2.5 0.5t-3 1
q-4 1 -8.5 14t-3 34t14.5 37q22 28 13 27q-6 -1 -14 -11q-31 -28 -37 -64q-5 -28 8 -50.5t32 -18.5zM372 382q57 13 57 -5q-1 -13 -23 -22q-9 -3 -18 -3q-29 -1 -29 15q1 12 13 15zM325 349q15 1 15 -6q-1 -5 -10 -6q-14 -1 -13 7q0 5 8 5zM777 354q-22 16 -49 28t-53 18
t-46 9.5t-38.5 5t-19.5 1.5q-9 -4 -24.5 -12t-59 -42t-82.5 -78q-2 -2 -3.5 -5t-3 -7t-2 -6.5t-1 -8t-1 -8.5t-0.5 -10v-9.5v-10.5v-11q0 -19 -1.5 -56t-1.5 -42q0 -12 -5 -16t-23 0q-2 0 -14.5 2t-19.5 3.5t-20.5 4.5t-22 6.5t-17.5 8t-14.5 10.5t-6.5 13q-5 28 -20 39
q-10 7 -10 -10q0 -5 1 -12q5 -36 19 -54.5t47 -32.5q47 -20 125 -23q12 -1 28.5 -6t28.5 -10.5t43 -20.5t50 -23q39 -18 53.5 -24.5t36 -13.5t33 -6t22.5 7q25 16 71 56t63 66q19 28 6 43q-10 12 -20 -2q-1 -2 -2 -3q-10 -22 -43.5 -58t-57.5 -46q-16 -7 -34.5 -8t-34.5 2
t-48 11q-24 6 -53.5 18.5t-47.5 22.5l-17 9l1 180q1 4 4 10.5t15 25t28.5 36t48.5 39.5t70 39q4 0 11 -1t26 -6.5t36.5 -14.5t39 -29t36.5 -46l-132 73q-4 -2 -11.5 -6t-28.5 -16.5t-38.5 -26t-37 -33.5t-30.5 -40q27 -8 55.5 -18t44.5 -16t33.5 -10.5t33 -4.5t32.5 5
q27 8 52.5 22.5t37.5 24.5l12 10q-1 -2 -1.5 -5t-4 -12.5t-8.5 -18t-15.5 -19t-23.5 -17.5q-5 -3 -22 -12.5t-21.5 -12t-18.5 -7t-23 -3.5t-23 4t-30 10q-26 12 -45.5 20t-35.5 13.5t-24.5 5t-7.5 -6.5q0 -3 -0.5 -10.5t1 -10.5t6 -9t15.5 -12t28 -13q15 -6 42 -19
t41.5 -18.5t37 -6t45.5 9.5q49 23 88.5 53t43.5 51q6 25 -16 62.5t-77 77.5zM276 428q15 8 40 15t43 9l18 2q-3 3 -9 7t-21 17t-26.5 26t-22.5 30.5t-14 33.5q30 -14 58.5 -42.5t42.5 -49.5l14 -22l20 5l-3 78q-43 37 -85 57q-19 9 -49.5 20t-51.5 17l-22 7q4 -15 11 -38
t27.5 -71t38.5 -70q-27 6 -58.5 60t-37.5 126q-1 0 -1.5 -14.5t2.5 -39t10 -52t27 -58.5t49 -53zM511 465q-2 27 5 55.5t15 43.5l8 14q-12 -82 4 -113q16 -3 28.5 -7.5t17.5 -8.5l5 -3q2 6 4.5 17t1 39t-12.5 50q-10 18 -37 60t-42 76q-3 -3 -8 -9t-18 -27.5t-22.5 -45.5
t-16.5 -62.5t-4 -78.5q37 4 72 0z" />
    <glyph glyph-name="waimai" unicode="&#xe630;" 
d="M370.5 230q-19.5 0 -33.5 -14t-14 -34t14 -34t33.5 -14t33.5 14t14 34t-14 34t-33.5 14zM370.5 166q-6.5 0 -11 4.5t-4.5 11.5t4.5 11.5t11 4.5t11.5 -4.5t5 -11.5t-5 -11.5t-11.5 -4.5zM344 441h117v-21h-117v21zM688 230q-20 0 -34 -14t-14 -34t14 -34t34 -14t34 14
t14 34t-14 34t-34 14zM688 166q-7 0 -11.5 4.5t-4.5 11.5t4.5 11.5t11.5 4.5t11.5 -4.5t4.5 -11.5t-4.5 -11.5t-11.5 -4.5zM513 762q-94 0 -179.5 -36.5t-147.5 -98.5t-98.5 -147.5t-36.5 -179.5t36.5 -179.5t98.5 -147.5t147.5 -98.5t179.5 -36.5t179.5 36.5t147.5 98.5
t98.5 147.5t36.5 179.5t-36.5 179.5t-98.5 147.5t-147.5 98.5t-179.5 36.5zM302 462q0 5 3 8t7 3h180q5 0 8 -3t3 -8v-95q0 -4 -3 -7t-8 -3h-180q-4 0 -7 3t-3 7v95zM778 182q0 -37 -26.5 -63.5t-63.5 -26.5q-33 0 -58 21t-30 53h-141q-6 -32 -30.5 -53t-57.5 -21
q-36 0 -62 24.5t-28 60.5v0v53l53 74h-32v31h201v-31l-32 -53h80l47 84v64h-32v32h85v-1q4 1 5 1q16 0 26.5 -11t10.5 -26v-5v-1v-2q-2 -6 -5 -12l-16 -39v-53l21 -10v0q36 -2 60.5 -28t24.5 -62v0z" />
    <glyph glyph-name="xiuxianyule" unicode="&#xe63b;" 
d="M956 761h-889q-5 0 -9 -4t-4 -10v-727q0 -5 4 -9t9 -4h889q6 0 9.5 4t3.5 9v727q0 6 -3.5 10t-9.5 4zM162 87q0 -5 -4 -9t-10 -4h-27q-5 0 -9 4t-4 9v54q0 6 4 10t9 4h27q6 0 10 -4t4 -10v-54zM162 222q0 -6 -4 -9.5t-10 -3.5h-27q-5 0 -9 3.5t-4 9.5v54q0 5 4 9t9 4h27
q6 0 10 -4t4 -9v-54zM162 357q0 -6 -4 -10t-10 -4h-27q-5 0 -9 4t-4 10v54q0 5 4 9t9 4h27q6 0 10 -4t4 -9v-54zM162 491q0 -5 -4 -9t-10 -4h-27q-5 0 -9 4t-4 9v54q0 6 4 10t9 4h27q6 0 10 -4t4 -10v-54zM162 626q0 -6 -4 -9.5t-10 -3.5h-27q-5 0 -9 3.5t-4 9.5v54q0 5 4 9
t9 4h27q6 0 10 -4t4 -9v-54zM444 250v267l134 -133zM916 87q0 -5 -4 -9t-10 -4h-27q-5 0 -9 4t-4 9v54q0 6 4 10t9 4h27q6 0 10 -4t4 -10v-54zM916 222q0 -6 -4 -9.5t-10 -3.5h-27q-5 0 -9 3.5t-4 9.5v54q0 5 4 9t9 4h27q6 0 10 -4t4 -9v-54zM916 357q0 -6 -4 -10t-10 -4
h-27q-5 0 -9 4t-4 10v54q0 5 4 9t9 4h27q6 0 10 -4t4 -9v-54zM916 491q0 -5 -4 -9t-10 -4h-27q-5 0 -9 4t-4 9v54q0 6 4 10t9 4h27q6 0 10 -4t4 -10v-54zM916 626q0 -6 -4 -9.5t-10 -3.5h-27q-5 0 -9 3.5t-4 9.5v54q0 5 4 9t9 4h27q6 0 10 -4t4 -9v-54z" />
    <glyph glyph-name="houtui1" unicode="&#xe60e;" 
d="M823 400h-583l250 251q12 11 0.5 22.5t-23.5 0.5l-278 -278v0v-1q-1 0 -1 -1l-0.5 -0.5l-0.5 -0.5l-0.5 -0.5l-0.5 -0.5l-0.5 -1l-0.5 -1v-0.5v-0.5v-1t-1 -1v0v-1v0v0v-4v0v0q0 -1 0.5 -1t0.5 -1v-1v-0.5v-0.5l0.5 -1l0.5 -1l0.5 -0.5l0.5 -0.5l0.5 -0.5l0.5 -0.5
q0 -1 1 -1v-1v0l278 -278q12 -11 23.5 0.5t-0.5 22.5l-250 251h583q7 0 12 4.5t5 11.5t-5 11.5t-12 4.5z" />
    <glyph glyph-name="ktv" unicode="&#xe65c;" 
d="M506 876q101 0 193 -39t158 -105.5t105.5 -158.5t39.5 -193t-39.5 -192.5t-105.5 -158t-158 -106t-193 -39.5t-192.5 39.5t-158 106t-106 158t-39.5 192.5t39.5 193t106 158.5t158 105.5t192.5 39v0zM588 716v0q1 -8 2 -17q9 -64 66 -133q58 -70 120 -88q16 -5 30 -5
q30 45 26.5 101.5t-40.5 99.5q-38 45 -95.5 56.5t-108.5 -14.5v0zM246 252q-1 -44 43 -51l319 214q-33 21 -59.5 53t-41.5 69zM256 184l-33 32q-28 -30 -38 -62t-1 -60q8 -28 31 -46t55 -20q45 -4 102.5 25.5t118.5 98.5q95 106 174 120q34 6 59 -7q23 -13 37 -40
q24 -49 5 -115l45 -12q23 82 -9 148q-20 40 -57 59q-39 21 -88 12q-94 -16 -200 -135q-54 -59 -101 -85.5t-83 -23.5q-18 2 -30 11q-11 9 -15 22q-11 37 28 78v0zM780 444q-76 25 -143 105q-59 72 -77 145q-46 -57 -36 -131q15 -42 48 -81t72 -57q73 -21 136 19z" />
    <glyph glyph-name="meiyoudingdan02" unicode="&#xe782;" 
d="M536 245q-8 0 -14 -6t-6 -14.5t6 -14t14 -5.5h59q8 0 14 5.5t6 14t-6 14.5t-14 6h-59zM538 359q-9 0 -14.5 -5.5t-5.5 -14t5.5 -14.5t14.5 -6h50q8 0 14 6t6 14.5t-6 14t-14 5.5h-50zM969 465q-8 76 -31 137q-26 68 -70 117q-59 64 -149 95q-79 27 -185 30q-51 2 -103 -3
q-76 -8 -137 -31q-67 -25 -116 -69q-65 -59 -96 -151q-27 -78 -30 -182q-2 -70 7 -133q13 -94 52 -162q28 -52 71 -89q62 -54 151 -79q78 -21 179 -22q39 0 81 4q75 8 136 31q68 25 117 69q65 59 96 150q28 80 31 186q1 51 -4 102zM780 93h-66q-11 0 -18.5 7.5t-7.5 18.5
t7.5 19t18.5 8h66q11 0 19 -8t8 -19t-8 -18.5t-19 -7.5zM806 504q-6 -26 -26 -36q-14 -8 -28 -8q-12 0 -24 6q5 -21 4 -42q-2 -47 -26 -65q-29 -21 -60 18q-25 30 -48 55q15 -29 26 -59q22 -63 23 -126q1 -76 -28 -147q-3 -7 -11 -7h-24h-146h-193q-11 0 -19 7.5t-8 18.5
t8 19t19 8h211q32 46 40 95q10 47 2 113t-30 106q-39 -38 -91 -99q-13 -16 -29 -16q-11 0 -20 7q-26 20 -27 72q0 33 13 67q-1 -1 -2 -1.5l-1 -0.5q-26 -18 -37 -25t-22 -7v0q-13 0 -22.5 9.5t-12.5 25.5q-8 37 17 78q28 47 90 74q35 16 75 16q44 0 87 -17q16 -7 27 -14
q1 0 1 -1q11 9 23 17q50 30 112 30t106 -39q38 -34 50 -82q7 -27 1 -50z" />
    <glyph glyph-name="dizhi" unicode="&#xe609;" horiz-adv-x="1025" 
d="M840 507q0 88 -44 163t-119.5 118.5t-165 43.5t-165 -43.5t-119.5 -118.5t-44 -163q0 -87 44 -163v0l284 -408l285 408v0q44 75 44 163zM511 344q-68 0 -116 47.5t-48 115t48 115.5t116 48t116.5 -48t48.5 -115.5t-48 -115t-117 -47.5v0z" />
    <glyph glyph-name="mima" unicode="&#xe66e;" 
d="M768 486h-51v103q0 85 -60 145t-145 60t-145 -60t-60 -145v-103h-51q-21 0 -36 -15t-15 -36v-409q0 -22 15 -37t36 -15h512q21 0 36 15t15 37v409q0 21 -15 36t-36 15zM358 589q0 63 45 108t109 45t109 -45t45 -108v-103h-52v103q0 42 -30 72t-72 30t-72 -30t-30 -72
v-103h-52v103zM461 589q0 21 15 36t36 15t36 -15t15 -36v-103h-102v103zM768 51q0 -10 -7.5 -17.5t-18.5 -7.5h-460q-11 0 -18.5 7.5t-7.5 17.5v359q0 10 7.5 17.5t18.5 7.5h460q11 0 18.5 -7.5t7.5 -17.5v-359zM512 333q-32 0 -54.5 -22.5t-22.5 -54.5q0 -25 14.5 -45
t37.5 -27q0 -1 -0.5 -2.5t-0.5 -2.5v-25q0 -11 7.5 -18.5t18.5 -7.5t18.5 7.5t7.5 18.5v25q0 1 -0.5 2.5t-0.5 2.5q23 7 37.5 27t14.5 45q0 32 -22.5 54.5t-54.5 22.5zM512 230q-11 0 -18.5 7.5t-7.5 18.5t7.5 18.5t18.5 7.5t18.5 -7.5t7.5 -18.5t-7.5 -18.5t-18.5 -7.5z
" />
    <glyph glyph-name="gouwu" unicode="&#xe603;" 
d="M412.5 444.5q-6.5 0.5 -11 -4t-4.5 -11.5q-1 -5 0 -11q0 -7 4.5 -11.5t11 -4.5t11 4.5t4.5 11.5v6v4q0 7 -4.5 11.5t-11 5zM605 441q-5 4 -11 3.5t-10 -4.5t-4 -10v-6h-1v-6q0 -7 4.5 -11.5t11 -4.5t11 4t5.5 11q1 8 0 14t-6 10zM751 880h-494q-106 0 -181 -75.5
t-75 -181.5v-494q0 -106 75 -181.5t181 -75.5h494q106 0 181.5 75.5t75.5 181.5v494q0 106 -75.5 181.5t-181.5 75.5zM418 575q28 35 71 41q47 6 82 -23.5t39 -72.5h-30q-1 0 -2 5q-7 31 -35 48q-33 21 -69 5.5t-44 -53.5l-1 -4h-32q3 29 21 54zM730.5 141q-7.5 -8 -21.5 -8
h-206h-205q-13 0 -21 8.5t-6 22.5q3 20 11 92q9 72 13 112q8 61 13 104q2 15 19 15h353q17 0 19 -16q4 -28 10 -78q6 -54 9 -77q15 -118 19 -154q1 -13 -6.5 -21z" />
    <glyph glyph-name="yundongjianshen" unicode="&#xe60a;" 
d="M751 880h-494q-106 0 -181 -75.5t-75 -181.5v-494q0 -106 75 -181.5t181 -75.5h494q106 0 181.5 75.5t75.5 181.5v494q0 106 -75.5 181.5t-181.5 75.5zM335.5 677.5q22.5 21.5 53 21.5t52 -21.5t21.5 -52.5t-21.5 -52.5t-52 -21.5t-53 21.5t-22.5 52.5t22.5 52.5z
M540.5 67q-2.5 -10 -11.5 -16l-5 -3q-9 -6 -18.5 -4t-15.5 11l-98 151q-6 7 -4 17q1 10 9 16l79 62l-61 92v-28v-4q-1 -9 -8.5 -15.5t-16.5 -6.5h-124h-4q-11 2 -18.5 11t-7.5 21q0 13 8.5 21.5t21.5 8.5h2h104v64v1v1v1q0 1 1 2q1 10 9 16l98 65l8 4q62 39 97 28
q17 -5 36.5 -17.5t30.5 -22.5l12 -10l4 -4q2 -2 6 -8.5t5 -12.5t-2 -14t-13.5 -14t-19 -7t-14 3t-8.5 8.5t-6 10.5t-4 7q-5 5 -20.5 10t-22.5 5q-9 0 -28 -12l86 -130l7 -9q6 -8 5 -18t-9 -15l-168 -133l75 -114q6 -9 3.5 -19zM754 101l-9 -7q-7 -7 -19 -5t-20 12l-105 125
q-2 2 -4 5l48 37q2 -1 3 -2l105 -124q8 -10 8.5 -22t-7.5 -19z" />
    <glyph glyph-name="fanhuidingbu" unicode="&#xe63c;" 
d="M832 704h-639q-21 0 -36 15t-15 36v25q0 21 15 36t36 15h639q21 0 36 -15t15 -36v-25q0 -21 -15 -36t-36 -15v0zM172 366l276 219q4 5 7 8q19 19 45 23q3 1 5 1h7.5h7.5q2 0 5 -1q26 -4 46 -23q2 -3 6 -8l276 -219q44 -43 -3 -89q-36 -36 -100 27l-174 137v-453
q0 -21 -14.5 -36t-36.5 -15h-25q-21 0 -36 15t-15 36v453l-174 -137q-64 -63 -100 -27q-47 46 -3 89v0z" />
    <glyph glyph-name="jingdian" unicode="&#xe63d;" 
d="M512 892q-103 0 -197 -40.5t-162 -108.5t-108.5 -162t-40.5 -197t40.5 -197t108.5 -162t162 -108.5t197 -40.5t197 40.5t162 108.5t108.5 162t40.5 197t-40.5 197t-108.5 162t-162 108.5t-197 40.5zM228 96q67 169 88 227q54 154 112 64q23 -37 48.5 -98t39 -101.5
t13.5 -42.5l13 -51zM610 162l-4 15q-42 141 -96 251q87 245 105 270q9 12 20.5 21.5t28.5 12.5t34.5 -6t37.5 -41t38 -86q35 -105 65 -215t43 -164.5t13 -57.5h-285z" />
    <glyph glyph-name="qian" unicode="&#xe634;" 
d="M512 71q21 0 36 15t15 35v101h101q21 0 36 15t15 36t-15 35.5t-36 14.5h-101v51h101q21 0 36 14.5t15 35.5t-15 36t-36 15h-76l70 69q15 15 15 36t-15 36t-36 15t-36 -15l-67 -67l-66 67q-15 15 -36 15t-36 -15t-15 -36t15 -36l70 -69h-90q-21 0 -35.5 -15t-14.5 -36
t14.5 -35.5t35.5 -14.5h101v-51h-101q-21 0 -35.5 -14.5t-14.5 -35.5t14.5 -36t35.5 -15h101v-101q0 -20 15 -35t35 -15v0zM512 71zM956 601q-3 8 -7 14q-1 1 -1 2h-1q-14 18 -37 18q-20 0 -34.5 -14.5t-14.5 -34.5q0 -18 13 -32q42 -85 42 -180q0 -109 -54.5 -202.5
t-147.5 -147.5t-202.5 -54t-202.5 54t-147.5 147.5t-54.5 203t54.5 202.5t147.5 147t202 54q130 0 234 -74q15 -20 40 -20q21 0 35.5 14.5t14.5 35.5q0 20 -15 35v0l-1 1q-3 3 -7 5q-135 104 -306 104q-102 0 -194.5 -39.5t-160 -106.5t-107 -160t-39.5 -195t39.5 -195
t107 -160t160 -107t195 -40t195 40t160 107t107 160t39.5 195q0 118 -52 223v0zM956 601z" />
    <glyph glyph-name="denglu" unicode="&#xe62e;" 
d="M819 272q-61 61 -140 94q53 40 84 99.5t31 127.5q0 117 -82.5 199.5t-199.5 82.5t-199.5 -82.5t-82.5 -199.5q0 -68 31 -127.5t84 -99.5q-79 -33 -140 -94q-62 -61 -95 -140.5t-33 -166.5q0 -24 17.5 -41t41.5 -17t41 17t17 41q0 86 42.5 159.5t116 116t159.5 42.5
t159.5 -42.5t116 -116t42.5 -159.5q0 -24 17 -41t41 -17t41.5 17t17.5 41q0 87 -33 166.5t-95 140.5zM512 759q68 0 116.5 -48.5t48.5 -117t-48.5 -117t-116.5 -48.5t-116.5 48.5t-48.5 117t48.5 117t116.5 48.5z" />
    <glyph glyph-name="shenghuofuwu" unicode="&#xe64d;" horiz-adv-x="1147" 
d="M964 515h-763q-31 0 -52.5 -22t-21.5 -53v-494q0 -30 21.5 -52t52.5 -22h763q31 0 53 22t22 52v494q0 31 -22 53t-53 22zM749.5 398q20.5 0 35.5 -15t15 -35.5t-15 -35.5t-35.5 -15t-35.5 15t-15 35.5t15 35.5t35.5 15zM395.5 398q20.5 0 35.5 -15t15 -35.5t-15 -35.5
t-35.5 -15t-35.5 15t-15 35.5t15 35.5t35.5 15zM573 -29q-108 0 -195 62t-123 160h51q35 -78 107 -126t160 -48t160.5 48t106.5 126h52q-37 -98 -124 -160t-195 -62zM35 412q-29 0 -34 13t17 32l501 420q23 19 54.5 19t53.5 -19l501 -420q22 -19 17 -32t-33 -13h-1077z" />
    <glyph glyph-name="meifa2" unicode="&#xe6e8;" 
d="M685.5 334.5q-9.5 -9.5 -9.5 -23.5t10 -23t23.5 -9t23 10t9.5 23.5t-10 23t-23.5 9t-23 -10zM489.5 406q-9.5 -10 0.5 -19.5t19.5 0.5t-0.5 19.5t-19.5 -0.5zM500 389q-8 0 -8 7.5t8 7.5t8 -7.5t-8 -7.5zM567 165q10 -9 23.5 -9t23 10t9.5 23.5t-10 23t-23.5 9t-23 -10
t-9.5 -23.5t10 -23zM512 896q-139 0 -257 -68.5t-186.5 -186.5t-68.5 -257t68.5 -257t186.5 -186.5t257 -68.5t257 68.5t186.5 186.5t68.5 257t-68.5 257t-186.5 186.5t-257 68.5zM546 539l3 4l56 83q3 5 10.5 6t12.5 -3l10 -7h1v0l110 -83l-6 -10l-104 65l-18 -28l97 -73
l-6 -10l-104 65l-18 -28l97 -73l-7 -10l-103 64l-18 -27l97 -73l-7 -10l-103 64l-18 -27l97 -73l-5 -8l-71 56q-30 25 -34 28v0l-26 23zM524 205l-103 64l-87 -128q-7 -10 -14 -5l-24 16q-7 5 -1 15l155 229l14 -17h1q2 -2 17 -19l-18 -26l97 -73l-6 -10l-103 64l-19 -27
l97 -73zM747.5 275q-15.5 -16 -37.5 -16.5t-38 14.5l-125 97l-20 -21l101 -122q15 -15 15.5 -37.5t-15 -38t-38 -16t-38 14.5t-16 37.5t15.5 38.5q15 15 36 16l-76 92v0q-38 44 -43 49l-201 227q-7 7 -2 17q9 5 17 -2l228 -198q4 -4 34 -29l110 -86q1 22 16 37
q15 16 37 16.5t38 -15t16.5 -37.5t-15 -38zM593 307l-7 -10l-17 11l-34 41v1z" />
    <glyph glyph-name="spa" unicode="&#xe6e5;" 
d="M956 69l-64 127q0 81 -39.5 135.5t-86.5 54.5q-28 0 -48.5 -2t-44.5 -7.5t-37 -19.5t-13 -34h-174q0 38 39 94.5t91.5 104.5t106 82.5t80.5 34.5q51 0 95 -28t72.5 -71t48.5 -95.5t28.5 -99.5t8.5 -86v-190h-63zM512.5 576q-52.5 0 -89.5 37t-37 89.5t37 89.5t89.5 37
t89.5 -37t37 -89.5t-37 -89.5t-89.5 -37zM702 259v-190h-348q-10 5 -19 13l-55 -126q-8 -9 -21 -10v-4h-253v127h205l100 177q11 12 29 9q7 4 14 4h348zM132.5 196q-52.5 0 -89.5 37t-37 89.5t37 89.5t89.5 37t89.5 -37t37 -89.5t-37 -89.5t-89.5 -37z" />
    <glyph glyph-name="zizhucan" unicode="&#xe665;" 
d="M818 216l-626 164q-7 1 -11.5 5.5t-5.5 7.5l-1 4q35 127 145 199t239 54l6 23l-1 1q-36 9 -35 15v3q7 24 35.5 35.5t62.5 2.5t53 -33t13 -49l-1 -3q-2 -5 -38 5h-2l-6 -23q121 -49 180 -166t25 -244l-2.5 -2.5t-9.5 -3.5t-20 5zM273 274q5 14 13.5 21t14.5 7h6
q422 -107 429 -108q3 -1 5.5 -4t1 -6t-6.5 -3h-446q-12 0 -21.5 9t-13.5 24q-3 12 1 20t13 6q4 -1 4.5 0t0 4t-1.5 6.5t-1 10t2 13.5zM863 56h-708q-15 0 -25.5 11t-10.5 25.5t10.5 25t25.5 10.5h708q15 0 25.5 -10.5t10.5 -25t-10.5 -25.5t-25.5 -11z" />
    <glyph glyph-name="zhoubianyou" unicode="&#xe6cb;" 
d="M37 -84v855h165l-36 -49h-75v-521q83 22 190 32l24 -26q-123 -12 -214 -38v-204h842v155q-42 35 -150.5 60t-241.5 31l8 27q126 -6 227 -27.5t157 -53.5v565h-294l-25 49h373v-855h-950zM471 141l8 27q95 -7 155.5 -29t60.5 -50q0 -33 -85 -57t-206 -24t-206 24t-85 57
q0 27 57 48.5t147 29.5l5 -28q-69 -6 -117.5 -20.5t-48.5 -31.5q0 -23 80.5 -40t167.5 -17t165 17t78 40q0 18 -52 33t-124 21zM409 165q-13 6 -44.5 36.5t-72 82t-75 110t-52 128t-3.5 128.5q9 42 28.5 76t40.5 54.5t48.5 35.5t46.5 21.5t42.5 10t29 4t11.5 0.5
q4 0 11.5 -0.5t29 -4t42 -10t47.5 -21.5t48.5 -35.5t40.5 -54.5t29 -76q14 -59 -4 -128.5t-52.5 -128t-75 -110t-72.5 -82t-44 -36.5zM408.5 734q-56.5 0 -96.5 -39.5t-40 -96t40 -96.5t96.5 -40t96.5 40t40 96.5t-40 96t-96.5 39.5z" />
    <glyph glyph-name="quanbufenlei" unicode="&#xe62b;" 
d="M323 896h-215q-45 0 -76.5 -31.5t-31.5 -76.5v-215q0 -44 31.5 -75.5t76.5 -31.5h215q44 0 75.5 31.5t31.5 75.5v215q2 45 -29.5 76.5t-77.5 31.5v0zM916 896h-215q-44 0 -75.5 -31.5t-31.5 -76.5v-215q0 -44 31.5 -75.5t75.5 -31.5h215q45 0 76.5 31.5t31.5 75.5v215
q0 45 -31.5 76.5t-76.5 31.5v0zM323 302h-215q-45 0 -76.5 -31.5t-31.5 -75.5v-215q0 -45 31.5 -76.5t76.5 -31.5h215q44 0 75.5 31.5t31.5 76.5v215q2 44 -29.5 75.5t-77.5 31.5v0zM916 302h-215q-44 0 -75.5 -31.5t-31.5 -75.5v-215q0 -45 31.5 -76.5t75.5 -31.5h215
q45 0 76.5 31.5t31.5 76.5v215q0 44 -31.5 75.5t-76.5 31.5v0z" />
    <glyph glyph-name="xuexipeixun" unicode="&#xe622;" horiz-adv-x="1195" 
d="M300 -6q-55 0 -99 -9t-69 -22t-42.5 -26t-29 -22t-19.5 -9q-40 -1 -41 56l1 794q-1 25 19 40q51 56 112.5 78t147.5 22q66 0 133.5 -24t116.5 -64v-931q-65 65 -114.5 91t-115.5 26v0zM1169 -41q0 -31 -13 -42.5t-28 -11.5q-20 0 -42 29v0v0q-66 60 -216 60
q-66 0 -114 -25t-115 -92v931q49 40 116.5 64t133.5 24q86 0 147.5 -22t112.5 -78q19 -15 19 -40z" />
    <glyph glyph-name="xican" unicode="&#xe60d;" 
d="M113 31q-4 310 -6 348q-3 77 -25 141q-22 67 -18.5 114t14 73t17.5 26v-156h6t6 -1q2 27 4.5 80.5t4.5 80.5h11v-163q2 -1 11.5 -1h12.5q2 26 2 79.5t2 80.5h12v-155q3 0 8.5 -0.5t7.5 -0.5v155q31 -63 31 -120.5t-25 -104.5q-26 -49 -28 -119q-3 -59 -3 -167v-141
q-1 -7 -3 -15t-6 -18.5t-6 -15.5h-30zM880 15q-1 7 -4.5 20.5t-5 24t-2.5 20.5q0 167 2.5 408t5.5 266q25 -39 60.5 -177.5t19.5 -198.5q-20 -70 -22.5 -196t-7.5 -167h-46zM509 96q-122 4 -207.5 90.5t-82.5 203.5q3 119 93.5 202t214.5 80q122 -3 208 -89.5t83 -203.5
q-3 -120 -93.5 -203t-215.5 -80zM778 381q0 106 -75 180.5t-183 75.5q-107 1 -185 -74.5t-77.5 -179.5t78.5 -178.5t185 -73.5q105 1 180.5 74.5t76.5 175.5zM519 582q87 0 148.5 -59t59.5 -141q-2 -81 -62 -138t-144 -58q-88 0 -149 57t-61.5 140.5t60.5 141t148 57.5z" />
    <glyph glyph-name="meishi" unicode="&#xe613;" 
d="M780 21q2 -4 3 -10.5t2 -9.5q-5 13 -5 20zM512 896q-211 0 -361.5 -150.5t-150.5 -361.5t150.5 -361.5t361.5 -150.5t361.5 150.5t150.5 361.5q-1 104 -41.5 198.5t-109 163.5t-163 109.5t-198.5 40.5zM498 465v27q0 -22 -16 -38t-38 -16v-379q0 -12 -7.5 -19.5
t-19.5 -7.5h-54q-12 0 -19.5 7.5t-7.5 19.5v379q-22 0 -38 16t-16 38v244h54v-217h27v217h54v-217h27v217h54v-271zM742 59q0 -12 -7.5 -19.5t-19.5 -7.5h-54q-12 0 -19.5 7.5t-7.5 19.5v298h-54v298q0 33 23.5 57t57.5 24t57.5 -24t23.5 -57v-596z" />
    <glyph glyph-name="fanhuidingbu1" unicode="&#xe62a;" horiz-adv-x="1755" 
d="M877.5 819q-88.5 0 -169 -34.5t-138.5 -93t-92.5 -139t-34.5 -168.5t34.5 -169t92.5 -139t138.5 -92.5t169 -34.5t169 34.5t139 92.5t93 139t34.5 169t-34.5 168.5t-93 139t-139 93t-169 34.5zM878 -18q-109 0 -201.5 54t-146.5 146.5t-54 201.5t54 201.5t146.5 146.5
t201.5 54t201.5 -54t146 -146.5t53.5 -201.5t-53.5 -201.5t-146 -146.5t-201.5 -54zM1095 399l-203 202q-6 6 -14.5 6t-14.5 -6l-202 -202q-6 -6 -6 -14q0 -9 6 -15t14 -6t14 6l169 168v-357q0 -8 5.5 -14t14 -6t14.5 6t6 14v357l168 -168q6 -5 14.5 -5t14.5 5.5t6 14.5
q0 8 -6 14z" />
    <glyph glyph-name="huoguo" unicode="&#xe661;" 
d="M103 463h826v-37h-826v37zM707 112h-382l-45 -112h471zM141 398q11 -81 61.5 -148t126.5 -107h373q77 40 127 107t62 148h-750zM77 323q-8 0 -13 -5.5t-5 -13t5 -13t13 -5.5h73q-10 18 -18 37h-55v0zM955 323q7 0 12.5 -5.5t5.5 -13t-5.5 -13t-12.5 -5.5h-73q10 18 17 37
h56v0zM523 522l-21 16q13 18 19 33t5 22.5t-2 15.5q-4 16 -21 43q-20 32 -22 53q-6 40 34 81l18 -18q-30 -32 -27 -60q2 -15 19 -43q19 -30 24 -50q2 -12 3 -23.5t-6 -29.5t-23 -40zM426 488l-21 16q13 17 19 31t5 21l-2 14q-4 15 -20 40q-21 30 -23 50q-6 39 34 77l18 -18
q-30 -30 -27 -55q2 -15 19 -40q19 -29 24 -48q2 -11 3 -22t-6.5 -28t-22.5 -38zM620 488l-21 16q14 17 19.5 31t4.5 21l-2 14q-4 15 -20 40q-20 30 -23 50q-6 39 34 77l18 -18q-30 -30 -27 -55q2 -15 19 -40q19 -29 24 -48q2 -11 3 -22t-6 -28t-23 -38v0z" />
    <glyph glyph-name="jiazhuangdai" unicode="&#xe88c;" 
d="M853 895h-682q-70 0 -120 -50t-50 -120v-682q0 -70 50 -120t120 -50h682q70 0 120 50t50 120v682q0 70 -50 120t-120 50zM894 305l-48 -48l23 -23q24 -25 24 -60t-24 -59l-84 -72q-23 -23 -57 -23q-36 0 -61 24l-215 216v0l-2 3v0q-9 8 -20.5 8t-19.5 -8l-8 -9l55 -54
q8 -8 8 -20v0v0q0 -11 -8 -20l-17 -17v0l-119 -127q-24 -24 -59 -24t-60 24l-72 74q-25 25 -25 59.5t25 59.5l121 122h1l17 17q8 8 19.5 8t19.5 -8l54 -54l8 8q25 25 60 25t59 -25l3 -2l215 -216q8 -8 20 -8t20 8l84 72q7 7 6.5 18.5t-8.5 19.5l-23 23l-25 -26
q-25 -25 -60 -25t-59 25l-328 328q-25 25 -25 59.5t25 59.5l113 115q24 23 59.5 23t59.5 -23l328 -329q25 -25 25 -59.5t-25 -59.5zM527 670q-8 8 -19.5 8t-20 -8t-8.5 -19.5t8 -20.5l283 -288q8 -8 20 -8q11 0 19.5 8t8.5 19.5t-8 19.5z" />
    <glyph glyph-name="xiafangxiang" unicode="&#xe600;" horiz-adv-x="1025" 
d="M46 612v0q0 -11 8 -18l411 -426q20 -21 49 -21.5t50 19.5v1l423 426q8 8 8 19t-7.5 18.5t-18.5 7.5t-19 -8l-423 -426q-5 -5 -12 -5v0q-7 0 -12 5l-412 426q-7 8 -18 8t-19 -7.5t-8 -18.5v0z" />
    <glyph glyph-name="youpinwangtubiao-" unicode="&#xe6b7;" 
d="M151 763q-9 -24 -28.5 -42t-39 -27t-40 -15t-30.5 -7t-13 -1v-64q17 -15 43 -36t78.5 -56.5t70.5 -35.5t71 35.5t79.5 56.5t44.5 36v0l61 -64q-41 -36 -82 -64q-18 -13 -45.5 -29t-46.5 -26l-18 -9q2 -6 4.5 -16t8.5 -39.5t9 -56.5t2 -60.5t-9 -58.5q-12 -38 -32 -92.5
t-33 -89.5l-14 -35q-1 -3 -1.5 -7.5t1 -15.5t6.5 -19t20 -15t38 -7q15 0 31 16t24 32l9 16q26 69 67 128q10 16 20.5 29t18 19t13.5 10t9 5l3 1h189q38 -29 64 -64q54 -84 64 -128q6 -28 22.5 -46t41.5 -18q27 0 45.5 18.5t18.5 45.5q0 1 -20 86t-36 177t-8 121
q11 38 22 62.5t18.5 35t23.5 30.5q9 10 43 36t59.5 50.5t25.5 41.5t-13.5 23.5t-27.5 4t-20 -7.5q-7 -4 -32 -21.5l-35 -24.5q-20 -13 -51.5 -32.5t-77 -43.5t-63.5 -26q-31 -6 -55.5 -6t-72.5 6q-28 3 -60 19t-50 30l-18 15l192 192l-64 64l-189 -192l-67 256
q-36 -5 -74 -21q-74 -25 -95 -79z" />
    <glyph glyph-name="qinzi-" unicode="&#xe617;" 
d="M751 300q25 5 39 27.5t8.5 49t-27 41.5t-46.5 10t-44 -29.5t-13 -50.5q5 -25 31 -39t52 -9zM372 551q32 -5 54 16t28 62q5 35 -17 62t-55 29q-33 3 -58 -19.5t-28 -57.5q-3 -34 19.5 -60.5t56.5 -31.5zM912 336q-6 -3 -35.5 -16.5t-60.5 -24.5t-63 -15q-57 -7 -117.5 -2
t-69.5 3q-6 0 -8 -5.5t2 -10.5q16 -18 58.5 -33.5t44.5 -17.5q9 -7 11 -17.5t2 -31.5t3 -40q8 -46 25 -64q6 -6 12.5 -4t6.5 10q0 28 12 43.5t37 13.5q13 -2 22.5 -8t16.5 -17t9.5 -16t8.5 -19q3 -5 8.5 -4.5t7.5 6.5q10 26 -2 76q-13 53 -10 70q2 12 11 26t19 22
q53 37 63 56q5 10 0 16.5t-14 3.5zM562 333q-1 5 -7 17q-77 159 -205 171q-44 1 -84 -14.5t-66 -38.5t-45.5 -46t-28.5 -40l-9 -16q-31 -70 -14 -78q8 -4 22 12q84 105 103 82q3 -4 3 -14q-3 -110 18.5 -191t51.5 -122q5 -7 13.5 -3.5t7.5 12.5q-3 24 -3 78v7q4 23 17 29.5
t31 -2t37 -27.5q8 -8 24 -25t22 -22.5t16.5 -15t18.5 -14.5t17 -10q2 0 4 -1t7 -2.5t9 -1.5q7 0 7.5 6.5t-3.5 11.5q-70 90 -89.5 145t-11.5 116q6 24 14.5 36t17.5 13t21 -5.5t20.5 -14.5t20.5 -20t17 -16q11 -9 19 -8q4 1 6 4.5t1 7.5z" />
    <glyph glyph-name="yonghu" unicode="&#xe739;" 
d="M512 357h-1q-112 0 -191.5 79t-79.5 191q1 111 81 190t191 79t191 -79t81 -190q0 -112 -79.5 -191t-191.5 -79h-1zM512 858h-1q-96 0 -164.5 -68t-68.5 -163q0 -97 68.5 -166t165.5 -69t165.5 69t68.5 166q0 95 -68.5 163t-164.5 68h-1v0zM606 -128h-188h-70t-62 1.5
t-59 4.5t-48.5 8t-42.5 13.5t-29 20t-21 27.5t-6 37v18q0 91 45.5 168t123 122t167.5 45h2h188h2q90 0 167.5 -45t123 -122t45.5 -168v-18q0 -21 -6 -37t-21.5 -27.5t-30.5 -20t-43.5 -13.5t-49 -8t-59 -4.5t-61 -1.5h-67.5zM418 298h-2q-122 0 -209.5 -86.5t-88.5 -209.5
v-18q0 -13 4.5 -23.5t16 -18t24.5 -13t35.5 -9t42.5 -5.5t52 -3t58 -1.5t67 -0.5h188q51 0 77 0.5t68 2.5t64 6.5t46.5 12.5t34.5 21t10 31v18q-1 123 -88.5 209.5t-209.5 86.5h-2h-188z" />
    <glyph glyph-name="xing" unicode="&#xe608;" horiz-adv-x="1040" 
d="M244 -106q-32 0 -55 23t-23 56v4l16 254l-164 202q-21 25 -17.5 57.5t28.5 52.5q14 11 31 15l248 61l137 220q18 27 49.5 34.5t59.5 -9.5q15 -10 24 -25l138 -220l248 -61q32 -7 48.5 -35t9.5 -60q-5 -17 -16 -30l-164 -202l16 -246q5 -32 -14 -58.5t-51 -31.5
q-6 -1 -13 -1v0q-15 0 -28 5l-240 92l-240 -92q-13 -5 -28 -5v0v0z" />
    <glyph glyph-name="dianying" unicode="&#xe604;" horiz-adv-x="1046" 
d="M959 831h-131v65h-610v-65h-131v65q-28 0 -57.5 -22t-29.5 -50v-880q0 -31 23 -51.5t64 -20.5v65h131v-65h610v65h131v-65q28 0 57.5 22t29.5 50v880q0 28 -29.5 50t-57.5 22v-65zM87 199h131v-131h-131v131zM828 199h131v-131h-131v131zM87 460h131v-130h-131v130z
M828 460h131v-130h-131v130zM87 722h131v-131h-131v131zM828 722h131v-131h-131v131zM370 172v414l356 -207z" />
    <glyph glyph-name="iconjiehun" unicode="&#xe605;" 
d="M367 717q43 -84 -9 -137q-40 -40 -100 -35q-63 6 -83 59q-12 30 -7 55.5t18 47t36 34t47 16t50.5 -6.5t47.5 -33zM67 356q19 15 35 44t26 53.5t29.5 48.5t45.5 34q13 -1 21.5 -9.5t13 -17.5t13 -18t20.5 -11q20 -4 32.5 3.5t17.5 18.5t15 21.5t25 12.5q33 -23 65.5 -58.5
t51.5 -61t52 -72.5q10 42 56.5 89.5t101.5 79.5q18 -5 29 -20.5t20.5 -37.5t18.5 -32q10 10 33 45.5t46 44.5q41 -35 79 -97t45 -106q-16 -7 -31 2t-26 24t-26.5 31.5t-29.5 21.5q-14 -24 -15 -46t8.5 -39t21.5 -37.5t23 -41.5t13.5 -51t-6.5 -67q-17 6 -30 3.5t-21.5 -5.5
t-14.5 -12t-9.5 -17t-5.5 -21.5t-3 -23.5t-3 -24t-3 -24h-102q-1 10 -2 23.5t-1.5 24t-2 23.5t-4 21t-8 17.5t-13.5 12t-20 5.5t-28 -3q-37 101 57 203h90q-5 13 -24 18t-37 6t-28 14.5t-1 40.5q-70 -30 -147 -90q-111 84 -158 113v-124q-10 -2 -29 -5.5t-29 -4.5t-31 -2.5
t-35 1.5q8 -12 32 -13.5t47 2t45 -0.5q-1 -52 11.5 -140.5t11.5 -141.5h-68l-23 46t-22 45q-19 -10 -37.5 -45t-30.5 -46h-56q3 37 14 133t16 163t4 122q-16 2 -37 -18t-45 -47.5t-43 -36.5v57zM818 604q10 19 -22 43t-68 36q-3 -1 -7 -1q-21 -5 -32 -8.5t-23.5 -12.5
t-16.5 -23q-9 59 48 83q53 23 111 -2q63 -27 66 -92q-5 -22 -19.5 -40.5t-29 -30t-27 -31.5t-14.5 -45h-56q1 24 -9 40t-24 23t-28 20t-18 30q21 51 56 67q24 0 43 -9t39.5 -25t30.5 -22zM536 573q-16 -10 -68 39.5t-56 73.5q-9 49 4.5 72.5t41.5 24.5t65 -3q43 -6 92 4
q2 1 13 -11t19 -32t-2 -47q-4 -8 -8.5 -23.5t-8 -21.5t-14 -18.5t-29.5 -25.5t-49 -32zM456 654q-10 15 -10 33t5 34t1.5 29t-19.5 17q-17 -29 -7.5 -62.5t30.5 -50.5z" />
    <glyph glyph-name="sousuo" unicode="&#xe678;" 
d="M1011 -55l-181 181q45 54 77 142t32 158v0q0 95 -37.5 182t-100.5 149.5t-149.5 100t-182 37.5t-182.5 -37.5t-150 -100t-100 -149.5t-37 -182t37 -182t100 -149.5t150 -100t182 -37.5q170 0 301 109l181 -181q13 -13 30.5 -13t30 12.5t12.5 30t-13 30.5v0zM469 43
q-104 0 -192.5 51t-140 139.5t-51.5 192.5t51.5 192.5t140 139.5t192.5 51t192.5 -51t140 -139.5t51.5 -192.5t-51.5 -192.5t-140 -139.5t-192.5 -51v0z" />
  </font>
</defs>
</svg>
